HIERARCHY
ROOT SimulationBone
{
	OFFSET 0.000000 0.000000 0.000000
	CHANNELS 6 Xposition Yposition Zposition Zrotation Yrotation Xrotation 
	JOINT Hips
	{
		OFFSET 0.000000 0.000000 0.000000
		CHANNELS 6 Xposition Yposition Zposition Zrotation Yrotation Xrotation 
		JOINT LeftUpLeg
		{
			OFFSET 0.103456 1.857826 10.548504
			CHANNELS 3 Zrotation Yrotation Xrotation
			JOINT LeftLeg
			{
				OFFSET 43.499996 -0.000038 0.000006
				CHANNELS 3 Zrotation Yrotation Xrotation
				JOINT LeftFoot
				{
					OFFSET 42.372192 0.000011 -0.000004
					CHANNELS 3 Zrotation Yrotation Xrotation
					JOINT LeftToe
					{
						OFFSET 17.300018 0.000006 0.000004
						CHANNELS 3 Zrotation Yrotation Xrotation
						End Site
						{
							OFFSET 0.000000 0.000000 0.000000
						}
					}
				}
			}
		}
		JOINT RightUpLeg
		{
			OFFSET 0.103455 1.857819 -10.548502
			CHANNELS 3 Zrotation Yrotation Xrotation
			JOINT RightLeg
			{
				OFFSET 43.500038 -0.000031 0.000011
				CHANNELS 3 Zrotation Yrotation Xrotation
				JOINT RightFoot
				{
					OFFSET 42.372261 -0.000008 0.000014
					CHANNELS 3 Zrotation Yrotation Xrotation
					JOINT RightToe
					{
						OFFSET 17.299999 -0.000004 0.000004
						CHANNELS 3 Zrotation Yrotation Xrotation
						End Site
						{
							OFFSET 0.000000 0.000000 0.000000
						}
					}
				}
			}
		}
		JOINT Spine
		{
			OFFSET 6.901965 -2.603737 -0.000000
			CHANNELS 3 Zrotation Yrotation Xrotation
			JOINT Spine1
			{
				OFFSET 12.588105 0.000013 0.000001
				CHANNELS 3 Zrotation Yrotation Xrotation
				JOINT Spine2
				{
					OFFSET 12.343203 0.000010 -0.000000
					CHANNELS 3 Zrotation Yrotation Xrotation
					JOINT Neck
					{
						OFFSET 25.832893 -0.000038 0.000001
						CHANNELS 3 Zrotation Yrotation Xrotation
						JOINT Head
						{
							OFFSET 11.766606 0.000028 0.000001
							CHANNELS 3 Zrotation Yrotation Xrotation
							End Site
							{
								OFFSET 0.000000 0.000000 0.000000
							}
						}
					}
					JOINT LeftShoulder
					{
						OFFSET 19.745897 -1.480375 6.000107
						CHANNELS 3 Zrotation Yrotation Xrotation
						JOINT LeftArm
						{
							OFFSET 11.284126 -0.000009 -0.000017
							CHANNELS 3 Zrotation Yrotation Xrotation
							JOINT LeftForeArm
							{
								OFFSET 33.000046 0.000006 0.000030
								CHANNELS 3 Zrotation Yrotation Xrotation
								JOINT LeftHand
								{
									OFFSET 25.200006 0.000034 0.000015
									CHANNELS 3 Zrotation Yrotation Xrotation
									End Site
									{
										OFFSET 0.000000 0.000000 0.000000
									}
								}
							}
						}
					}
					JOINT RightShoulder
					{
						OFFSET 19.746096 -1.480394 -6.000075
						CHANNELS 3 Zrotation Yrotation Xrotation
						JOINT RightArm
						{
							OFFSET 11.284135 -0.000006 -0.000006
							CHANNELS 3 Zrotation Yrotation Xrotation
							JOINT RightForeArm
							{
								OFFSET 33.000095 0.000018 0.000006
								CHANNELS 3 Zrotation Yrotation Xrotation
								JOINT RightHand
								{
									OFFSET 25.199783 0.000116 0.000436
									CHANNELS 3 Zrotation Yrotation Xrotation
									End Site
									{
										OFFSET 0.000000 0.000000 0.000000
									}
								}
							}
						}
					}
				}
			}
		}
	}
}
MOTION
Frames: 5
Frame Time: 0.016667
-1.661122 0.000000 -38.146454 180.000000 34.916419 180.000000 1.609803 91.047493 0.080693 96.850709 2.393231 -179.124409 -171.235957 -12.768600 153.698899 -22.655234 0.388836 -6.422488 85.451567 2.213518 -11.814711 21.454551 0.003092 -0.000000 173.445086 2.667295 -158.385065 -22.788479 2.778878 24.566882 79.579455 -15.547145 7.907629 21.454558 -0.003119 -0.000019 8.111240 1.476333 -0.498247 6.199800 2.977038 -0.917293 5.881270 2.971584 -0.935259 -5.130550 -2.114691 -3.460432 -6.137860 -3.098684 -3.276150 169.907402 -77.055081 8.877016 -15.349439 58.903030 25.634278 -47.057950 -15.860271 1.714985 8.629464 -9.746740 6.743468 139.454128 74.400844 -40.073892 -5.725322 -49.385508 -9.597972 -49.677368 17.374620 -1.927985 10.269242 9.376971 -22.919092 
-1.620418 0.000000 -37.435641 180.000000 34.276196 180.000000 1.644074 91.023635 0.069649 96.944888 2.408606 -178.941443 -171.026716 -12.451396 152.651325 -21.763853 0.364798 -5.561704 86.206276 1.794200 -11.193215 21.454550 0.003092 -0.000000 173.355806 3.151457 -158.025107 -22.866819 2.707676 24.765097 79.099766 -15.610134 8.215850 21.454559 -0.003107 -0.000018 8.103782 1.429307 -0.465030 6.185925 2.881244 -0.853555 5.867431 2.876174 -0.870949 -5.057959 -2.339758 -3.800510 -6.115643 -2.955388 -3.720084 170.218135 -76.929863 8.564565 -15.312796 58.939963 25.750682 -46.762827 -15.861452 1.706038 8.678722 -9.742090 6.564567 139.590907 74.417329 -39.933678 -5.513983 -49.301417 -9.402169 -49.517936 17.471405 -1.929238 10.295217 9.477014 -22.845604 
-1.576594 0.000000 -36.726560 180.000000 33.617761 180.000000 1.672857 91.001671 0.024850 97.045708 2.344676 -178.795851 -170.833099 -12.064698 152.249014 -20.933063 0.217665 -4.778633 86.828485 1.400518 -10.677491 21.454553 0.003092 -0.000000 173.254346 3.757205 -157.729026 -23.003450 2.660989 24.976718 78.610921 -15.671941 8.566744 21.454560 -0.003098 -0.000017 8.106939 1.360585 -0.428881 6.193385 2.742008 -0.784835 5.874941 2.737353 -0.801393 -5.000349 -2.552095 -4.152393 -6.095531 -2.781162 -4.179481 170.498309 -76.816059 8.282767 -15.229364 58.989924 25.937023 -46.379647 -15.923188 1.698497 8.789877 -9.737057 6.276172 139.738892 74.439612 -39.781614 -5.285624 -49.351261 -9.239373 -49.215569 17.579111 -1.926597 10.351630 9.595045 -22.767317 
-1.529685 0.000000 -36.021592 180.000000 32.941964 180.000000 1.703720 90.987379 -0.050119 97.150034 2.157485 -178.718471 -170.677119 -11.548767 152.622644 -20.197377 -0.172835 -4.410212 87.260786 1.262556 -10.287974 21.454556 0.003092 0.000000 173.130923 4.541937 -157.534667 -23.225916 2.675896 25.197357 78.144265 -15.739227 8.926946 21.454560 -0.003102 -0.000017 8.119102 1.259273 -0.387543 6.219011 2.537399 -0.707280 5.900612 2.533219 -0.722602 -4.946741 -2.763287 -4.509336 -6.087964 -2.568010 -4.653253 170.767954 -76.711244 8.011349 -15.075272 59.031297 26.205297 -45.925247 -16.021342 1.691363 8.954230 -9.733226 5.890480 139.919019 74.457527 -39.597291 -5.042528 -49.521288 -9.142209 -48.785275 17.689011 -1.920038 10.439151 9.714479 -22.686484 
-1.479993 0.000000 -35.324159 180.000000 32.250236 180.000000 1.734864 90.966461 -0.159667 97.240736 1.797191 -178.735312 -170.603318 -10.840801 153.674105 -19.601019 -0.754559 -4.463628 87.535922 1.410027 -9.883413 21.454558 0.003092 0.000000 172.906772 5.604708 -157.466487 -23.677998 2.792613 25.403053 77.769332 -15.799744 9.285404 21.454560 -0.003112 -0.000017 8.136103 1.115133 -0.339817 6.254455 2.246858 -0.619209 5.936110 2.243218 -0.632774 -4.893329 -2.990544 -4.862435 -6.096245 -2.308422 -5.140076 171.063494 -76.609856 7.713297 -14.849095 59.041396 26.531638 -45.403050 -16.108417 1.681455 9.147873 -9.737644 5.448142 140.127530 74.470771 -39.384487 -4.787067 -49.790493 -9.153884 -48.240078 17.784662 -1.908938 10.557419 9.834771 -22.584364 
